<svg xmlns="http://www.w3.org/2000/svg" version="1.1" viewBox="-5.0 -10.0 110.0 135.0">
 <path d="m71.805 47.836c-1.043 2.207-4.1875 3.2773-4.1875 3.2773 3.6719-2.6797 3.4883-6.3359 3.4883-6.3359 2.8906-4.5547-0.83984-9.3672-0.83984-9.3672-0.61328 1.9766-3.0781 4.1055-3.0781 4.1055 7.9844-8.0664 1.1289-18.664 1.1289-18.664 0.60156 3.6289-2.9297 8.5938-2.9297 8.5938 5.3477-10.031-0.089844-15.582-0.089844-15.582 0.44141 1.3477-1.3984 4.2578-1.3984 4.2578 2.0312-3.6562-0.25391-6.6445-0.25391-6.6445-0.074219 1.1172-1.7695 3.0703-1.7695 3.0703 0.85547-1.3125 0.89062-4.1406 0.89062-4.1406-2.8477-2.9297-3.0859-7.1719-3.0859-7.1719-2.3984 4.7344-1.4102 8.5664-1.4102 8.5664l-1.0859-1.8438s-0.66016 1.1719-0.92188 3.7656c-0.25781 2.5977 3.918 6.9688 3.918 6.9688-2.4727-1.2539-4.6484-4.9727-4.6484-4.9727-0.027344 0.39453-0.11719 3.0156-1.1797 7.3555-1.0664 4.3359 5.7344 9.9297 5.7344 9.9297-6.2422-4.1016-6.2773-7.4062-6.2773-7.4062s-2.5938 7.1797 1.4336 10.414c4.0312 3.2344 3.9805 4.8828 3.9805 4.8828-0.94141-1.6484-2.3047-2.3906-4.3555-3.8672-2.0508-1.4766-3.1562-5.5781-3.1562-5.5781s-1.6133 6.8711 2.4102 10.727c4.0234 3.8516 3.5625 7.1094 3.5625 7.1094-0.29297-2.4844-3.6016-4.7969-5.0039-5.7422-1.4023-0.94922-1.543-3.4766-1.543-3.4766-0.8125 0.003906-1.0703 3.75-1.9727 4.4609-0.90234 0.71094-2.7812 2.8086-1.2383 4.1562 3.5742 3.1172 2.8906 11.531 2.8906 11.531-0.058594-6.918-3.7227-10.656-3.7227-10.656s-0.76953 3.6719-1.0312 4.3086c-0.26172 0.63672-2.1445 3.2422-0.95703 5.2812 0.85938 1.4766 1.1523 4.4844 1.25 6.0391-0.20703-0.98438-0.76172-2.4297-1.4609-3.5547-1.0156-1.6328-1.2188-3.2734-1.2188-3.2734-1.1406 1.625-3.6133 5.8789-2.7383 7.3672 0.875 1.4844 0.49219 3.9453 0.49219 3.9453 0.15625-2.4609-0.96094-3.4609-0.96094-3.4609-1.793 2.0547-1.3867 4.793-1.0117 6.0703 0.375 1.2812 0.039063 2.3125 0.039063 2.3125 0.10547-0.36328-0.26953-1.6445-0.26953-1.6445-1.2773 2.4453-1.0898 8.0664-1.4727 8.9922-0.38281 0.92188-3.9453 4.6602-6.1328 7.3438s-3.8242 7.4844-3.8242 7.4844c0.34375-0.67188 4.5664-3.8672 5.7422-5.4102 1.1758-1.543 4.9453-7.8516 5.1758-8.3008 0.23047-0.44531 3.0977-2.375 4.8125-2.1641 1.7148 0.21094 3.8984-0.60938 3.8984-0.60938-1.3359-0.14844-3.1406-1.3164-3.1406-1.3164 1.8359 0.96094 5.0781 1.2109 6.1133 0.53906 1.0391-0.67187 1.7109 0.45703 1.7109 0.45703 0.37109-2.1016-5.4219-3.1328-4.5898-3.6016 0.83594-0.46875 3.668 0.36328 3.668 0.36328 6.0898 0.48047 7.5938-3.8359 7.5938-3.8359-3.5547 2.7266-9.0469 1.6172-9.0469 1.6172 0.67969-0.25781 3.4062-0.55859 3.4062-0.55859l-1.4648-0.29688s1.5586-0.33984 2.6094-0.34375c1.0508-0.007813 3.8438-1.375 3.8438-1.375-0.85938 0.035156-3.2617-0.61719-3.2617-0.61719 6.4609 0.96875 9.8906-4.4102 9.8906-4.4102-1.043 1.0547-4.7461 1.7617-4.7461 1.7617 0.57812-0.16797 0.69531-0.86328 0.69531-0.86328-0.74609 0.40625-3.7344 0.60937-5.6797 0.70312 2.3906-0.40234 5.2617-1.8203 5.2617-1.8203-0.80859 0.074219-2.6406-0.074219-2.6406-0.074219 11.883 0.36328 11.52-9.6992 11.52-9.6992-3.7148 5.1406-7.4688 4.7891-7.4688 4.7891 3.3242-0.027344 6.8906-5.4062 6.8906-5.4062-0.38672 0.44922-1.8828 0.80078-1.8828 0.80078 4.957-2.3594 5.0977-9.2617 5.0977-9.2617z"/>
<text x="0.0" y="117.5" font-size="5.0" font-weight="bold" font-family="Arbeit Regular, Helvetica, Arial-Unicode, Arial, Sans-serif" fill="#000000">Created by giovanni ataraska</text><text x="0.0" y="122.5" font-size="5.0" font-weight="bold" font-family="Arbeit Regular, Helvetica, Arial-Unicode, Arial, Sans-serif" fill="#000000">from Noun Project</text></svg>